<svg width="16" height="15" viewBox="0 0 16 15" fill="none" xmlns="http://www.w3.org/2000/svg">
<path d="M11.1752 9.83781L12.0641 9.00769C12.203 8.87798 12.4447 8.96878 12.4447 9.15555V12.9274C12.4447 13.6149 11.8475 14.1726 11.1114 14.1726H1.33336C0.597235 14.1726 0 13.6149 0 12.9274V3.79606C0 3.10861 0.597235 2.55087 1.33336 2.55087H8.93075C9.12797 2.55087 9.22798 2.77396 9.08909 2.90627L8.20018 3.73639C8.15851 3.7753 8.10295 3.79606 8.04184 3.79606H1.33336V12.9274H11.1114V9.98309C11.1114 9.92861 11.1336 9.87673 11.1752 9.83781ZM15.5253 4.60284L8.23073 11.4151L5.71957 11.6745C4.99177 11.7497 4.37232 11.1764 4.45287 10.4915L4.73066 8.14643L12.0253 1.33422C12.6614 0.740157 13.6892 0.740157 14.3225 1.33422L15.5226 2.45489C16.1587 3.04894 16.1587 4.01137 15.5253 4.60284ZM12.7808 5.40442L11.1669 3.89723L6.00569 8.71974L5.8029 10.4137L7.61683 10.2243L12.7808 5.40442ZM14.5809 3.33689L13.3808 2.21622C13.267 2.10986 13.0808 2.10986 12.9697 2.21622L12.1114 3.01781L13.7253 4.52501L14.5836 3.72342C14.6948 3.61447 14.6948 3.44325 14.5809 3.33689Z" fill="#336666"/>
</svg>
