<svg width="19" height="19" viewBox="0 0 19 19" fill="none" xmlns="http://www.w3.org/2000/svg">
<g clip-path="url(#clip0_81_25)">
<path d="M4.28977 15.6011C6.71562 15.6011 8.63104 13.6342 8.63104 11.2084C8.63104 8.78254 6.63871 6.81571 4.21286 6.81571C4.18859 6.81571 4.15199 6.819 4.12772 6.81941C5.08687 6.05562 6.29157 5.59538 7.6102 5.59538C8.21687 5.59538 8.70508 5.10347 8.70508 4.49721C8.70508 3.89095 8.31475 3.39904 7.70809 3.39904C3.40219 3.39945 -8.4877e-05 6.90249 -8.4877e-05 11.2084C-8.4877e-05 11.2092 -8.4877e-05 11.21 -8.4877e-05 11.2113C-8.4877e-05 13.6359 1.86475 15.6011 4.28977 15.6011Z" fill="#FFA500"/>
<path d="M14.5785 15.6011C17.0044 15.6011 18.9231 13.6342 18.9231 11.2084C18.9231 8.78254 16.9324 6.81571 14.5061 6.81571C14.4819 6.81571 14.4461 6.819 14.4218 6.81941C15.381 6.05562 16.5861 5.59538 17.9047 5.59538C18.5114 5.59538 19 5.10347 19 4.49721C19 3.89095 18.6035 3.39904 17.9968 3.39904C13.6909 3.39945 10.2825 6.90249 10.2825 11.2084C10.2825 11.2092 10.2825 11.21 10.2825 11.2113C10.2825 13.6359 12.1535 15.6011 14.5785 15.6011Z" fill="#FFA500"/>
</g>
<defs>
<clipPath id="clip0_81_25">
<rect width="19" height="19" fill="white" transform="matrix(-1 0 0 -1 19 19)"/>
</clipPath>
</defs>
</svg>
