<svg width="19" height="19" viewBox="0 0 19 19" fill="none" xmlns="http://www.w3.org/2000/svg">
<path d="M14.7102 4.39893C12.2844 4.39893 10.369 6.36576 10.369 8.79161C10.369 11.2175 12.3613 13.1843 14.7871 13.1843C14.8114 13.1843 14.848 13.181 14.8723 13.1806C13.9131 13.9444 12.7084 14.4046 11.3898 14.4046C10.7831 14.4046 10.2949 14.8965 10.2949 15.5028C10.2949 16.109 10.6852 16.601 11.2919 16.601C15.5978 16.6005 19.0001 13.0975 19.0001 8.79161C19.0001 8.79079 19.0001 8.78996 19.0001 8.78873C19.0001 6.36412 17.1353 4.39893 14.7102 4.39893Z" fill="#FFA500"/>
<path d="M4.42147 4.39893C1.99563 4.39893 0.0769131 6.36576 0.0769131 8.79161C0.0769131 11.2175 2.0676 13.1843 4.49386 13.1843C4.51813 13.1843 4.55391 13.181 4.57818 13.1806C3.61903 13.9444 2.41392 14.4046 1.09529 14.4046C0.488624 14.4046 0 14.8965 0 15.5028C0 16.109 0.396493 16.601 1.00316 16.601C5.30906 16.6005 8.7175 13.0975 8.7175 8.79161C8.7175 8.79079 8.7175 8.78996 8.7175 8.78873C8.7175 6.36412 6.8465 4.39893 4.42147 4.39893Z" fill="#FFA500"/>
</svg>
