<svg width="30" height="26" viewBox="0 0 30 26" fill="none" xmlns="http://www.w3.org/2000/svg">
<path d="M26.9163 6.88629C26.9354 7.15278 26.9354 7.41932 26.9354 7.68581C26.9354 15.814 20.7488 25.1795 9.44166 25.1795C5.95813 25.1795 2.7221 24.1706 0 22.4194C0.494943 22.4765 0.970785 22.4955 1.48477 22.4955C4.3591 22.4955 7.00509 21.5247 9.11804 19.8686C6.41499 19.8115 4.14974 18.0412 3.36927 15.6046C3.75001 15.6617 4.1307 15.6998 4.53049 15.6998C5.0825 15.6998 5.63457 15.6236 6.1485 15.4904C3.33124 14.9193 1.21823 12.4447 1.21823 9.45611V9.37999C2.03673 9.83685 2.98859 10.1224 3.9974 10.1604C2.3413 9.05632 1.25631 7.17182 1.25631 5.03982C1.25631 3.89771 1.56083 2.85075 2.09386 1.93704C5.12053 5.66801 9.67006 8.10452 14.7715 8.37107C14.6764 7.91421 14.6193 7.43837 14.6193 6.96247C14.6193 3.57409 17.3604 0.813965 20.7678 0.813965C22.5381 0.813965 24.137 1.55635 25.2602 2.75559C26.6497 2.48911 27.9822 1.97512 29.1625 1.27082C28.7055 2.69852 27.7348 3.89777 26.4594 4.65914C27.6967 4.52595 28.896 4.18324 30 3.70739C29.1626 4.92562 28.1156 6.01061 26.9163 6.88629Z" fill="white"/>
</svg>
